<mxfile host="Electron" modified="2023-11-11T03:49:43.426Z" agent="Mozilla/5.0 (Macintosh; Intel Mac OS X 10_15_7) AppleWebKit/537.36 (KHTML, like Gecko) draw.io/22.0.3 Chrome/114.0.5735.289 Electron/25.8.4 Safari/537.36" etag="lQ2OQjsZg_F426nBb0rY" version="22.0.3" type="device">
  <diagram name="페이지-1" id="ouBd_r_Z6GMOP5HTmW3R">
    <mxGraphModel dx="1114" dy="894" grid="1" gridSize="10" guides="1" tooltips="1" connect="1" arrows="1" fold="1" page="1" pageScale="1" pageWidth="827" pageHeight="1169" math="0" shadow="0">
      <root>
        <mxCell id="0" />
        <mxCell id="1" parent="0" />
        <mxCell id="o0BX_6gMGSGsovwnP8xI-1" value="웹서버 #1" style="sketch=0;points=[[0.015,0.015,0],[0.985,0.015,0],[0.985,0.985,0],[0.015,0.985,0],[0.25,0,0],[0.5,0,0],[0.75,0,0],[1,0.25,0],[1,0.5,0],[1,0.75,0],[0.75,1,0],[0.5,1,0],[0.25,1,0],[0,0.75,0],[0,0.5,0],[0,0.25,0]];verticalLabelPosition=bottom;html=1;verticalAlign=top;aspect=fixed;align=center;pointerEvents=1;shape=mxgraph.cisco19.server;fillColor=#005073;strokeColor=none;" vertex="1" parent="1">
          <mxGeometry x="278.75" y="300" width="27.500000000000004" height="50" as="geometry" />
        </mxCell>
        <mxCell id="o0BX_6gMGSGsovwnP8xI-2" value="웹서버 #2" style="sketch=0;points=[[0.015,0.015,0],[0.985,0.015,0],[0.985,0.985,0],[0.015,0.985,0],[0.25,0,0],[0.5,0,0],[0.75,0,0],[1,0.25,0],[1,0.5,0],[1,0.75,0],[0.75,1,0],[0.5,1,0],[0.25,1,0],[0,0.75,0],[0,0.5,0],[0,0.25,0]];verticalLabelPosition=bottom;html=1;verticalAlign=top;aspect=fixed;align=center;pointerEvents=1;shape=mxgraph.cisco19.server;fillColor=#005073;strokeColor=none;" vertex="1" parent="1">
          <mxGeometry x="358.75" y="300" width="27.500000000000004" height="50" as="geometry" />
        </mxCell>
        <mxCell id="o0BX_6gMGSGsovwnP8xI-10" value="젠킨스" style="sketch=0;points=[[0.015,0.015,0],[0.985,0.015,0],[0.985,0.985,0],[0.015,0.985,0],[0.25,0,0],[0.5,0,0],[0.75,0,0],[1,0.25,0],[1,0.5,0],[1,0.75,0],[0.75,1,0],[0.5,1,0],[0.25,1,0],[0,0.75,0],[0,0.5,0],[0,0.25,0]];verticalLabelPosition=bottom;html=1;verticalAlign=top;aspect=fixed;align=center;pointerEvents=1;shape=mxgraph.cisco19.server;fillColor=#005073;strokeColor=none;" vertex="1" parent="1">
          <mxGeometry x="358.75" y="30" width="27.500000000000004" height="50" as="geometry" />
        </mxCell>
        <mxCell id="o0BX_6gMGSGsovwnP8xI-11" value="로드 밸런서" style="sketch=0;aspect=fixed;pointerEvents=1;shadow=0;dashed=0;html=1;strokeColor=none;labelPosition=center;verticalLabelPosition=bottom;verticalAlign=top;align=center;fillColor=#00188D;shape=mxgraph.azure.load_balancer_generic" vertex="1" parent="1">
          <mxGeometry x="354" y="150" width="37" height="50" as="geometry" />
        </mxCell>
        <mxCell id="o0BX_6gMGSGsovwnP8xI-12" style="edgeStyle=orthogonalEdgeStyle;rounded=0;orthogonalLoop=1;jettySize=auto;html=1;entryX=0.5;entryY=0;entryDx=0;entryDy=0;entryPerimeter=0;endArrow=block;endFill=1;" edge="1" parent="1" source="o0BX_6gMGSGsovwnP8xI-10" target="o0BX_6gMGSGsovwnP8xI-11">
          <mxGeometry relative="1" as="geometry" />
        </mxCell>
        <mxCell id="o0BX_6gMGSGsovwnP8xI-13" value="웹서버 #3" style="sketch=0;points=[[0.015,0.015,0],[0.985,0.015,0],[0.985,0.985,0],[0.015,0.985,0],[0.25,0,0],[0.5,0,0],[0.75,0,0],[1,0.25,0],[1,0.5,0],[1,0.75,0],[0.75,1,0],[0.5,1,0],[0.25,1,0],[0,0.75,0],[0,0.5,0],[0,0.25,0]];verticalLabelPosition=bottom;html=1;verticalAlign=top;aspect=fixed;align=center;pointerEvents=1;shape=mxgraph.cisco19.server;fillColor=#005073;strokeColor=none;" vertex="1" parent="1">
          <mxGeometry x="440" y="300" width="27.500000000000004" height="50" as="geometry" />
        </mxCell>
        <mxCell id="o0BX_6gMGSGsovwnP8xI-14" style="edgeStyle=orthogonalEdgeStyle;rounded=0;orthogonalLoop=1;jettySize=auto;html=1;entryX=0.5;entryY=0;entryDx=0;entryDy=0;entryPerimeter=0;endArrow=block;endFill=1;" edge="1" parent="1" source="o0BX_6gMGSGsovwnP8xI-11" target="o0BX_6gMGSGsovwnP8xI-1">
          <mxGeometry relative="1" as="geometry">
            <Array as="points">
              <mxPoint x="373" y="240" />
              <mxPoint x="293" y="240" />
            </Array>
          </mxGeometry>
        </mxCell>
        <mxCell id="o0BX_6gMGSGsovwnP8xI-15" style="edgeStyle=orthogonalEdgeStyle;rounded=0;orthogonalLoop=1;jettySize=auto;html=1;entryX=0.5;entryY=0;entryDx=0;entryDy=0;entryPerimeter=0;endArrow=block;endFill=1;dashed=1;" edge="1" parent="1" source="o0BX_6gMGSGsovwnP8xI-11" target="o0BX_6gMGSGsovwnP8xI-2">
          <mxGeometry relative="1" as="geometry" />
        </mxCell>
        <mxCell id="o0BX_6gMGSGsovwnP8xI-16" style="edgeStyle=orthogonalEdgeStyle;rounded=0;orthogonalLoop=1;jettySize=auto;html=1;entryX=0.5;entryY=0;entryDx=0;entryDy=0;entryPerimeter=0;endArrow=block;endFill=1;dashed=1;" edge="1" parent="1" source="o0BX_6gMGSGsovwnP8xI-11" target="o0BX_6gMGSGsovwnP8xI-13">
          <mxGeometry relative="1" as="geometry">
            <Array as="points">
              <mxPoint x="373" y="240" />
              <mxPoint x="454" y="240" />
            </Array>
          </mxGeometry>
        </mxCell>
        <mxCell id="o0BX_6gMGSGsovwnP8xI-17" value="실행" style="text;html=1;strokeColor=none;fillColor=none;align=center;verticalAlign=middle;whiteSpace=wrap;rounded=0;" vertex="1" parent="1">
          <mxGeometry x="240" y="220" width="60" height="30" as="geometry" />
        </mxCell>
      </root>
    </mxGraphModel>
  </diagram>
</mxfile>
